<?xml version="1.0" encoding="utf-8"?>
<!-- Generator: Adobe Illustrator 26.1.0, SVG Export Plug-In . SVG Version: 6.00 Build 0)  -->
<svg version="1.1" id="Layer_1" xmlns="http://www.w3.org/2000/svg" xmlns:xlink="http://www.w3.org/1999/xlink" x="0px" y="0px"
	 viewBox="0 0 680 160" style="enable-background:new 0 0 680 160;" xml:space="preserve">
<style type="text/css">
	.st0{fill:url(#SVGID_1_);}
	.st1{fill:url(#SVGID_00000096757067201047573120000006908107808189715116_);}
	.st2{fill:url(#SVGID_00000016754821485290976100000007183418925217342615_);}
	.st3{fill:url(#SVGID_00000009572327727671501360000014415898599656814265_);}
	.st4{fill:url(#SVGID_00000147943233172044096530000004932552098791338897_);}
	.st5{fill:url(#SVGID_00000004512484334456210610000016942607740349089960_);}
	.st6{fill:url(#SVGID_00000071539397652767159510000011465766961016769966_);}
	.st7{fill:url(#SVGID_00000167378354774591142600000003573253556157465733_);}
</style>
<g>
	<g>
		
			<linearGradient id="SVGID_1_" gradientUnits="userSpaceOnUse" x1="135.0881" y1="128.4969" x2="135.0881" y2="44.0814" gradientTransform="matrix(1 0 0 -1 0 162)">
			<stop  offset="0" style="stop-color:#C9C9C9"/>
			<stop  offset="1" style="stop-color:#C9C9C9"/>
		</linearGradient>
		<path class="st0" d="M128.3,82c-22.7,0-34-10.6-34-32c0-20.9,11.3-31.5,33.9-31.5h34c6.1,0,9,2.7,9,7.6c0,5.3-2.8,8-9,8h-37
			c-10,0-14.9,5.5-14.9,16.4c0,10.8,5,16.1,15.1,16.1H152c15.9,0,23.9,7,23.9,21.2c0,35-17.6,52.4-53.1,52.4h-17.3
			c-5.6,0-8.6-2.3-8.6-7.1c0-5.6,3-8.3,8.6-8.3H125c23.7,0,35.7-11.8,35.7-35.3c0-5-2.7-7.5-8-7.5H128.3z"/>
		
			<linearGradient id="SVGID_00000078031689471762829810000009176396089704496301_" gradientUnits="userSpaceOnUse" x1="217.6781" y1="128.4969" x2="217.6781" y2="44.0814" gradientTransform="matrix(1 0 0 -1 0 162)">
			<stop  offset="0" style="stop-color:#C9C9C9"/>
			<stop  offset="1" style="stop-color:#C9C9C9"/>
		</linearGradient>
		<path style="fill:url(#SVGID_00000078031689471762829810000009176396089704496301_);" d="M227.7,52.4c19.8,0,29.5,9.8,29.5,29.6
			v30c0,18.8-9.8,28.2-29.5,28.2h-20.2c-19.8,0-29.4-9.5-29.4-28.2V82c0-19.8,9.6-29.6,29.4-29.6H227.7z M229.5,124.8
			c8.1,0,12.3-3.7,12.3-11V80.1c0-8.3-4.1-12.3-12.3-12.3h-23.9c-8.1,0-12.1,4-12.1,12.3v33.7c0,7.3,4,11,12.1,11
			C205.6,124.8,229.5,124.8,229.5,124.8z"/>
		
			<linearGradient id="SVGID_00000051370137653994413100000004566016940911346314_" gradientUnits="userSpaceOnUse" x1="296.8531" y1="128.4969" x2="296.8531" y2="44.0814" gradientTransform="matrix(1 0 0 -1 0 162)">
			<stop  offset="0" style="stop-color:#C9C9C9"/>
			<stop  offset="1" style="stop-color:#C9C9C9"/>
		</linearGradient>
		<path style="fill:url(#SVGID_00000051370137653994413100000004566016940911346314_);" d="M334.9,140.2h-52.1
			c-16.1,0-24.1-8.1-24.1-24.4V60c0-5.2,2.5-7.6,7.6-7.6s7.8,2.5,7.8,7.6v55.8c0,6,3,9,8.6,9h36.7V60c0-5.2,2.5-7.6,7.6-7.6
			c5.3,0,7.8,2.5,7.8,7.6V140.2z"/>
		
			<linearGradient id="SVGID_00000017488086644898553580000015251982842836862885_" gradientUnits="userSpaceOnUse" x1="364.4131" y1="128.4969" x2="364.4131" y2="44.0814" gradientTransform="matrix(1 0 0 -1 0 162)">
			<stop  offset="0" style="stop-color:#C9C9C9"/>
			<stop  offset="1" style="stop-color:#C9C9C9"/>
		</linearGradient>
		<path style="fill:url(#SVGID_00000017488086644898553580000015251982842836862885_);" d="M380.9,52.4c5,0,7.6,2.3,7.6,7.1
			c0,5.5-2.7,8.3-7.8,8.3h-16.4c-5.6,0-8.6,3-8.6,8.8v55.8c0,5.2-2.7,7.8-7.8,7.8s-7.6-2.7-7.6-7.8V76.6c0-16.3,8.1-24.2,24.1-24.2
			L380.9,52.4L380.9,52.4z"/>
		
			<linearGradient id="SVGID_00000065789152323666864120000012666913978791764901_" gradientUnits="userSpaceOnUse" x1="422.7581" y1="128.4969" x2="422.7581" y2="44.0814" gradientTransform="matrix(1 0 0 -1 0 162)">
			<stop  offset="0" style="stop-color:#C9C9C9"/>
			<stop  offset="1" style="stop-color:#C9C9C9"/>
		</linearGradient>
		<path style="fill:url(#SVGID_00000065789152323666864120000012666913978791764901_);" d="M452.6,124.8c5,0,7.6,2.5,7.6,7.6
			s-2.7,7.8-7.8,7.8h-20.2c-31.4,0-47-14.8-47-44.5V80.3c0-18.6,9.8-27.9,29.2-27.9H452c5.5,0,8.3,2.5,8.3,7.6s-2.8,7.8-8.3,7.8h-37
			c-9.6,0-14.4,5.3-14.4,15.8v12.1c0,19.4,10.5,29,31.7,29L452.6,124.8L452.6,124.8z"/>
		
			<linearGradient id="SVGID_00000158008602940788546110000001926456505121747076_" gradientUnits="userSpaceOnUse" x1="501.5981" y1="128.4969" x2="501.5981" y2="44.0814" gradientTransform="matrix(1 0 0 -1 0 162)">
			<stop  offset="0" style="stop-color:#C9C9C9"/>
			<stop  offset="1" style="stop-color:#C9C9C9"/>
		</linearGradient>
		<path style="fill:url(#SVGID_00000158008602940788546110000001926456505121747076_);" d="M533,52.4c4.2,0,7.6,3.5,7.6,7.6v34.4
			c0,5.2-2.5,7.6-7.6,7.6H478v9.6c0,8.6,5.3,13.1,16.1,13.1H533c5.2,0,7.6,2.5,7.6,7.6s-2.5,7.8-7.6,7.8h-43.5
			c-17.9,0-26.9-9-26.9-27.2V60c0-4.2,3.5-7.6,7.6-7.6H533z M525.2,88.1V67.8H478v20.2H525.2z"/>
	</g>
</g>
<g>
	<g>
		
			<linearGradient id="SVGID_00000182498232568466300690000010878685730213206196_" gradientUnits="userSpaceOnUse" x1="53.9181" y1="17" x2="53.9181" y2="138.9269">
			<stop  offset="0" style="stop-color:#3DCFC2"/>
			<stop  offset="1" style="stop-color:#27756B"/>
		</linearGradient>
		<path style="fill:url(#SVGID_00000182498232568466300690000010878685730213206196_);" d="M87,140.4H58.4V49L30.5,60.3L20.9,37
			l48.9-19.1H87L87,140.4L87,140.4z"/>
	</g>
</g>
<linearGradient id="SVGID_00000036941699631736703480000012943288382980062901_" gradientUnits="userSpaceOnUse" x1="617.0031" y1="141.3131" x2="617.0031" y2="52.0239">
	<stop  offset="8.715100e-04" style="stop-color:#28786E"/>
	<stop  offset="1" style="stop-color:#3CCCBF"/>
</linearGradient>
<path style="fill:url(#SVGID_00000036941699631736703480000012943288382980062901_);" d="M654.5,50.7c-1.6,0.3-2.7,1.8-2.7,3.4v4.2
	c0,1.5-1.2,2.7-2.7,2.7l0,0h-5.1c-1.5,0-2.7-1.2-2.7-2.7l0,0V54c0-1.8-1.5-3.3-3.3-3.3l0,0h-41.8c-0.1,0-0.3,0-0.4,0
	c-1.7,0.2-2.9,1.6-2.9,3.3v4.4c0,1.5-1.2,2.7-2.7,2.7l0,0H585c-1.5,0-2.7-1.2-2.7-2.7l0,0v-4.2c0-1.6-1.1-3.1-2.7-3.4
	c-1.8-0.3-3.5,0.8-3.9,2.7c0,0.2-0.1,0.4-0.1,0.6v84.5c0,1.6,1.1,3.1,2.7,3.4c1.8,0.3,3.5-0.8,3.9-2.7c0-0.2,0.1-0.4,0.1-0.6v-4.4
	c0-1.5,1.2-2.7,2.7-2.7l0,0h5.1c1.5,0,2.7,1.2,2.7,2.7l0,0v4.4c0,1.7,1.2,3.1,2.9,3.3c0.1,0,0.3,0,0.4,0h41.8c1.8,0,3.3-1.5,3.3-3.3
	l0,0v-4.4c0-1.5,1.2-2.7,2.7-2.7l0,0h5.1c1.5,0,2.7,1.2,2.7,2.7l0,0v4.2c0,1.6,1.1,3.1,2.7,3.4c1.8,0.3,3.5-0.8,3.9-2.7
	c0-0.2,0.1-0.4,0.1-0.6V54c0-1.8-1.5-3.3-3.3-3.3C654.9,50.7,654.7,50.7,654.5,50.7L654.5,50.7z M592.8,122.1c0,1.5-1.2,2.7-2.7,2.7
	l0,0H585c-1.5,0-2.7-1.2-2.7-2.7l0,0v-3.8c0-1.5,1.2-2.7,2.7-2.7l0,0h5.1c1.5,0,2.7,1.2,2.7,2.7l0,0V122.1z M592.8,106.2
	c0,1.5-1.2,2.7-2.7,2.7l0,0H585c-1.5,0-2.7-1.2-2.7-2.7l0,0v-3.8c0-1.5,1.2-2.7,2.7-2.7l0,0h5.1c1.5,0,2.7,1.2,2.7,2.7l0,0V106.2z
	 M592.8,90.3c0,1.5-1.2,2.7-2.7,2.7l0,0H585c-1.5,0-2.7-1.2-2.7-2.7l0,0v-3.8c0-1.5,1.2-2.7,2.7-2.7l0,0h5.1c1.5,0,2.7,1.2,2.7,2.7
	l0,0V90.3z M592.8,74.3c0,1.5-1.2,2.7-2.7,2.7H585c-1.5,0-2.7-1.2-2.7-2.7l0,0v-3.8c0-1.5,1.2-2.7,2.7-2.7l0,0h5.1
	c1.5,0,2.7,1.2,2.7,2.7l0,0C592.8,70.5,592.8,74.3,592.8,74.3z M634.6,135.3h-35.1v-21.6h35.1L634.6,135.3L634.6,135.3z
	 M634.6,107.1h-35.1V85.5h35.1L634.6,107.1L634.6,107.1z M634.6,78.9h-35.1V57.3h35.1L634.6,78.9L634.6,78.9z M651.7,122.1
	c0,1.5-1.2,2.7-2.7,2.7l0,0h-5.1c-1.5,0-2.7-1.2-2.7-2.7l0,0v-3.8c0-1.5,1.2-2.7,2.7-2.7l0,0h5.1c1.5,0,2.7,1.2,2.7,2.7l0,0V122.1z
	 M651.7,106.2c0,1.5-1.2,2.7-2.7,2.7l0,0h-5.1c-1.5,0-2.7-1.2-2.7-2.7l0,0v-3.8c0-1.5,1.2-2.7,2.7-2.7l0,0h5.1
	c1.5,0,2.7,1.2,2.7,2.7l0,0V106.2z M651.7,90.3c0,1.5-1.2,2.7-2.7,2.7l0,0h-5.1c-1.5,0-2.7-1.2-2.7-2.7l0,0v-3.8
	c0-1.5,1.2-2.7,2.7-2.7l0,0h5.1c1.5,0,2.7,1.2,2.7,2.7l0,0V90.3z M651.7,74.3c0,1.5-1.2,2.7-2.7,2.7h-5.1c-1.5,0-2.7-1.2-2.7-2.7
	l0,0v-3.8c0-1.5,1.2-2.7,2.7-2.7l0,0h5.1c1.5,0,2.7,1.2,2.7,2.7l0,0C651.7,70.5,651.7,74.3,651.7,74.3z"/>
</svg>
