<?xml version="1.0" encoding="utf-8"?>
<!-- Generator: Adobe Illustrator 26.1.0, SVG Export Plug-In . SVG Version: 6.00 Build 0)  -->
<svg version="1.1" id="Layer_1" xmlns="http://www.w3.org/2000/svg" xmlns:xlink="http://www.w3.org/1999/xlink" x="0px" y="0px"
	 viewBox="0 0 680 160" style="enable-background:new 0 0 680 160;" xml:space="preserve">
<style type="text/css">
	.st0{fill:url(#SVGID_1_);}
	.st1{fill:url(#SVGID_00000094591575686350433100000008640594507960321941_);}
	.st2{fill:url(#SVGID_00000053512810852546929000000002227463040798714266_);}
	.st3{fill:url(#SVGID_00000017506319245366860770000014700019940854698630_);}
	.st4{fill:url(#SVGID_00000067227536039591634780000003723526919796145824_);}
	.st5{fill:url(#SVGID_00000083062263710073595990000017445034153077268905_);}
	.st6{fill:url(#SVGID_00000050622223662839072030000009217972078705889674_);}
	.st7{fill:url(#SVGID_00000154416744534604607440000004232571155259685516_);}
</style>
<g>
	<g>
		
			<linearGradient id="SVGID_1_" gradientUnits="userSpaceOnUse" x1="135.1" y1="-112.4969" x2="135.1" y2="-28.0814" gradientTransform="matrix(1 0 0 1 0 146)">
			<stop  offset="0" style="stop-color:#C9C9C9"/>
			<stop  offset="1" style="stop-color:#C9C9C9"/>
		</linearGradient>
		<path class="st0" d="M128.3,82c-22.7,0-34-10.6-34-32c0-20.9,11.3-31.5,33.9-31.5h34c6.1,0,9,2.7,9,7.6c0,5.3-2.8,8-9,8h-37
			c-10,0-14.9,5.5-14.9,16.4c0,10.8,5,16.1,15.1,16.1H152c15.9,0,23.9,7,23.9,21.2c0,35-17.6,52.4-53.1,52.4h-17.3
			c-5.6,0-8.6-2.3-8.6-7.1c0-5.6,3-8.3,8.6-8.3H125c23.7,0,35.7-11.8,35.7-35.3c0-5-2.7-7.5-8-7.5H128.3z"/>
		
			<linearGradient id="SVGID_00000140711524104451838460000012120340960845813637_" gradientUnits="userSpaceOnUse" x1="217.65" y1="-112.4969" x2="217.65" y2="-28.0814" gradientTransform="matrix(1 0 0 1 0 146)">
			<stop  offset="0" style="stop-color:#C9C9C9"/>
			<stop  offset="1" style="stop-color:#C9C9C9"/>
		</linearGradient>
		<path style="fill:url(#SVGID_00000140711524104451838460000012120340960845813637_);" d="M227.7,52.4c19.8,0,29.5,9.8,29.5,29.6
			v30c0,18.8-9.8,28.2-29.5,28.2h-20.2c-19.8,0-29.4-9.5-29.4-28.2V82c0-19.8,9.6-29.6,29.4-29.6H227.7z M229.5,124.8
			c8.1,0,12.3-3.7,12.3-11V80.1c0-8.3-4.1-12.3-12.3-12.3h-23.9c-8.1,0-12.1,4-12.1,12.3v33.7c0,7.3,4,11,12.1,11H229.5z"/>
		
			<linearGradient id="SVGID_00000149383844724505438110000015977833453971122616_" gradientUnits="userSpaceOnUse" x1="296.8" y1="-112.4969" x2="296.8" y2="-28.0814" gradientTransform="matrix(1 0 0 1 0 146)">
			<stop  offset="0" style="stop-color:#C9C9C9"/>
			<stop  offset="1" style="stop-color:#C9C9C9"/>
		</linearGradient>
		<path style="fill:url(#SVGID_00000149383844724505438110000015977833453971122616_);" d="M334.9,140.2h-52.1
			c-16.1,0-24.1-8.1-24.1-24.4V60c0-5.2,2.5-7.6,7.6-7.6s7.8,2.5,7.8,7.6v55.8c0,6,3,9,8.6,9h36.7V60c0-5.2,2.5-7.6,7.6-7.6
			c5.3,0,7.8,2.5,7.8,7.6v80.2H334.9z"/>
		
			<linearGradient id="SVGID_00000011729991516998619940000009156170608511791015_" gradientUnits="userSpaceOnUse" x1="364.4" y1="-112.4969" x2="364.4" y2="-28.0814" gradientTransform="matrix(1 0 0 1 0 146)">
			<stop  offset="0" style="stop-color:#C9C9C9"/>
			<stop  offset="1" style="stop-color:#C9C9C9"/>
		</linearGradient>
		<path style="fill:url(#SVGID_00000011729991516998619940000009156170608511791015_);" d="M380.9,52.4c5,0,7.6,2.3,7.6,7.1
			c0,5.5-2.7,8.3-7.8,8.3h-16.4c-5.6,0-8.6,3-8.6,8.8v55.8c0,5.2-2.7,7.8-7.8,7.8s-7.6-2.7-7.6-7.8V76.6c0-16.3,8.1-24.2,24.1-24.2
			L380.9,52.4L380.9,52.4z"/>
		
			<linearGradient id="SVGID_00000183966896809248151660000009223489568831917964_" gradientUnits="userSpaceOnUse" x1="422.75" y1="-112.4969" x2="422.75" y2="-28.0814" gradientTransform="matrix(1 0 0 1 0 146)">
			<stop  offset="0" style="stop-color:#C9C9C9"/>
			<stop  offset="1" style="stop-color:#C9C9C9"/>
		</linearGradient>
		<path style="fill:url(#SVGID_00000183966896809248151660000009223489568831917964_);" d="M452.6,124.8c5,0,7.6,2.5,7.6,7.6
			s-2.7,7.8-7.8,7.8h-20.2c-31.4,0-47-14.8-47-44.5V80.3c0-18.6,9.8-27.9,29.2-27.9H452c5.5,0,8.3,2.5,8.3,7.6s-2.8,7.8-8.3,7.8h-37
			c-9.6,0-14.4,5.3-14.4,15.8v12.1c0,19.4,10.5,29,31.7,29L452.6,124.8L452.6,124.8z"/>
		
			<linearGradient id="SVGID_00000041295207960553879610000006743289845153456806_" gradientUnits="userSpaceOnUse" x1="501.6" y1="-112.4969" x2="501.6" y2="-28.0814" gradientTransform="matrix(1 0 0 1 0 146)">
			<stop  offset="0" style="stop-color:#C9C9C9"/>
			<stop  offset="1" style="stop-color:#C9C9C9"/>
		</linearGradient>
		<path style="fill:url(#SVGID_00000041295207960553879610000006743289845153456806_);" d="M533,52.4c4.2,0,7.6,3.5,7.6,7.6v34.4
			c0,5.2-2.5,7.6-7.6,7.6h-55v9.6c0,8.6,5.3,13.1,16.1,13.1H533c5.2,0,7.6,2.5,7.6,7.6s-2.5,7.8-7.6,7.8h-43.5
			c-17.9,0-26.9-9-26.9-27.2V60c0-4.2,3.5-7.6,7.6-7.6H533z M525.2,88.1V67.8H478V88L525.2,88.1L525.2,88.1z"/>
	</g>
</g>
<g>
	<g>
		
			<linearGradient id="SVGID_00000041290966614417214880000011981627003831254177_" gradientUnits="userSpaceOnUse" x1="53.95" y1="143" x2="53.95" y2="21.0731" gradientTransform="matrix(1 0 0 -1 0 160)">
			<stop  offset="0" style="stop-color:#3DCFC2"/>
			<stop  offset="1" style="stop-color:#27756B"/>
		</linearGradient>
		<path style="fill:url(#SVGID_00000041290966614417214880000011981627003831254177_);" d="M87,140.4H58.4V49L30.5,60.3L20.9,37
			l48.9-19.1H87V140.4L87,140.4z"/>
	</g>
</g>
<g>
	
		<linearGradient id="SVGID_00000009562758319302365510000000283814662897830547_" gradientUnits="userSpaceOnUse" x1="609.9853" y1="140" x2="609.9853" y2="9.7541">
		<stop  offset="0" style="stop-color:#28786E"/>
		<stop  offset="1" style="stop-color:#3CCBBE"/>
	</linearGradient>
	<path style="fill:url(#SVGID_00000009562758319302365510000000283814662897830547_);" d="M608.6,67.7l46.9-7.6v63.6
		c0,5.3-3.9,9.5-10,11c-6.7,1.7-13.2-1.2-14.5-6.3c-1.3-5.2,3.1-10.7,9.8-12.4c3-0.7,6-0.6,8.5,0.3V78l-34.4,6.3l-0.2,47.7
		c0,4.5-4.1,8.9-10,10.4c-6.6,1.7-13.6-1.5-14.3-6.2c-1.3-5.1,3.1-10.6,9.7-12.2c3-0.7,5.9-0.6,8.4,0.3
		C608.6,124.1,608.6,67.7,608.6,67.7z M590.9,91l0.2-58.9c0,0,12.8-0.7,25.4,19c0,0,0-10.2-9.6-17.6c-18.8-13.2-18.8-16.3-18.8-16.3
		c-3.6,0.4-4,3.1-4,3.1v62c-2.7-0.9-5.9-1.1-9.2-0.3c-7.3,1.8-12.1,7.8-10.7,13.5c0.8,5.2,8.5,8.7,15.8,6.8
		C586.4,100.8,590.9,96,590.9,91L590.9,91z M625.1,52.9c2.2-0.6,3.8-2.2,3.8-4h0l0.1-20.5c0,0,4.5-0.2,8.8,6.6c0,0,0-3.5-3.4-6.1
		c-6.6-4.6-6.5-5.7-6.5-5.7c-1.2,0.1-1.4,1.1-1.4,1.1V46c-0.9-0.3-2-0.4-3.2-0.1c-2.6,0.6-4.2,2.7-3.7,4.7
		C619.9,52.4,622.5,53.6,625.1,52.9z M647.2,53c1.6-0.4,2.6-1.6,2.6-2.8l0-14.3c0,0,3.1-0.2,6.1,4.6c0,0,0-2.5-2.3-4.3
		c-4.6-3.2-4.6-3.9-4.6-3.9c-0.9,0.1-1,0.8-1,0.8v15c-0.7-0.2-1.4-0.3-2.2-0.1c-1.8,0.4-2.9,1.9-2.6,3.3
		C643.5,52.6,645.4,53.4,647.2,53z"/>
</g>
</svg>
