<?xml version="1.0" encoding="utf-8"?>
<!-- Generator: Adobe Illustrator 26.1.0, SVG Export Plug-In . SVG Version: 6.00 Build 0)  -->
<svg version="1.1" id="Layer_1" xmlns="http://www.w3.org/2000/svg" xmlns:xlink="http://www.w3.org/1999/xlink" x="0px" y="0px"
	 viewBox="0 0 16 16" style="enable-background:new 0 0 16 16;" xml:space="preserve">
<style type="text/css">
	.st0{fill:#808080;}
	.st1{fill:url(#SVGID_1_);}
</style>
<g>
	<path class="st0" d="M11.2,8.1C8.9,8.1,7.7,7,7.7,4.8c0-2.1,1.1-3.2,3.4-3.2h3.4c0.6,0,0.9,0.3,0.9,0.8c0,0.5-0.3,0.8-0.9,0.8h-3.8
		c-1,0-1.5,0.6-1.5,1.7c0,1.1,0.5,1.6,1.5,1.6h2.7c1.6,0,2.4,0.7,2.4,2.2c0,3.5-1.8,5.3-5.4,5.3H8.9C8.3,14,8,13.7,8,13.3
		c0-0.6,0.3-0.8,0.9-0.8h2c2.4,0,3.6-1.2,3.6-3.6c0-0.5-0.3-0.8-0.8-0.8H11.2z"/>
</g>
<g>
	
		<linearGradient id="SVGID_1_" gradientUnits="userSpaceOnUse" x1="3.6368" y1="12.7462" x2="3.6368" y2="7.0859" gradientTransform="matrix(1 0 0 -1 0 18)">
		<stop  offset="0" style="stop-color:#3DCFC2"/>
		<stop  offset="1" style="stop-color:#25897D"/>
	</linearGradient>
	<path class="st1" d="M7,14H4.1V4.7L1.3,5.9l-1-2.4l5-1.9H7L7,14L7,14z"/>
</g>
</svg>
