<?xml version="1.0" encoding="utf-8"?>
<!-- Generator: Adobe Illustrator 26.1.0, SVG Export Plug-In . SVG Version: 6.00 Build 0)  -->
<svg version="1.1" id="Layer_1" xmlns="http://www.w3.org/2000/svg" xmlns:xlink="http://www.w3.org/1999/xlink" x="0px" y="0px"
	 viewBox="0 0 155 122" style="enable-background:new 0 0 155 122;" xml:space="preserve">
<style type="text/css">
	.st0{fill:url(#SVGID_1_);}
	.st1{fill:url(#SVGID_00000088855636717970208130000015406161176079554457_);}
</style>
<g>
	<g>
		<g>
			<linearGradient id="SVGID_1_" gradientUnits="userSpaceOnUse" x1="113.3909" y1="16.1009" x2="113.3909" y2="100.0509">
				<stop  offset="0" style="stop-color:#C9C9C9"/>
				<stop  offset="1" style="stop-color:#C9C9C9"/>
			</linearGradient>
			<path class="st0" d="M106.62,64.28c-22.62,0-33.84-10.56-33.84-31.86c0-20.8,11.22-31.36,33.67-31.36h33.84
				c6.11,0,8.91,2.64,8.91,7.59c0,5.28-2.81,7.92-8.91,7.92h-36.81c-9.9,0-14.86,5.45-14.86,16.34c0,10.73,4.95,16.01,15.02,16.01
				h26.58c15.85,0,23.77,6.93,23.77,21.13c0,34.83-17.5,52.16-52.82,52.16H84.01c-5.61,0-8.58-2.31-8.58-7.1
				c0-5.61,2.97-8.25,8.58-8.25h19.31c23.61,0,35.49-11.72,35.49-35.16c0-4.95-2.64-7.43-7.92-7.43H106.62z"/>
		</g>
	</g>
	<g>
		<g>
			
				<linearGradient id="SVGID_00000132071321086013855520000012636625476156104601_" gradientUnits="userSpaceOnUse" x1="32.6562" y1="36.6376" x2="32.6562" y2="92.1852">
				<stop  offset="0" style="stop-color:#9AD9EB"/>
				<stop  offset="1" style="stop-color:#729FD3"/>
			</linearGradient>
			<path style="fill:url(#SVGID_00000132071321086013855520000012636625476156104601_);" d="M65.52,122.38H37.12V31.53L9.42,42.8
				l-9.62-23.24L48.38,0.54h17.14V122.38z"/>
		</g>
	</g>
</g>
</svg>
