<?xml version="1.0" encoding="utf-8"?>
<!-- Generator: Adobe Illustrator 26.1.0, SVG Export Plug-In . SVG Version: 6.00 Build 0)  -->
<svg version="1.1" id="Layer_1" xmlns="http://www.w3.org/2000/svg" xmlns:xlink="http://www.w3.org/1999/xlink" x="0px" y="0px"
	 viewBox="0 0 512 512" style="enable-background:new 0 0 512 512;" xml:space="preserve">
<style type="text/css">
	.st0{fill:#FFFFFF;}
	.st1{fill:url(#SVGID_1_);}
</style>
<g>
	<g>
		<path class="st0" d="M348.7,260.9c-73.2,0-109.5-34.2-109.5-103.1c0-67.3,36.3-101.5,109-101.5h109.5c19.8,0,28.8,8.6,28.8,24.6
			c0,17.1-9.1,25.6-28.8,25.6H338.6c-32.1,0-48.1,17.6-48.1,52.9c0,34.7,16,51.8,48.6,51.8h86c51.3,0,76.9,22.4,76.9,68.4
			c0,112.7-56.6,168.8-171,168.8h-55.5c-18.2,0-27.8-7.5-27.8-23c0-18.2,9.6-26.7,27.8-26.7H338c76.4,0,114.9-37.9,114.9-113.8
			c0-16-8.6-24-25.6-24H348.7z"/>
	</g>
</g>
<g>
	<g>
		
			<linearGradient id="SVGID_1_" gradientUnits="userSpaceOnUse" x1="109.3624" y1="342.5412" x2="109.3624" y2="162.7861" gradientTransform="matrix(1 0 0 -1 0 514)">
			<stop  offset="0" style="stop-color:#8EC7C3"/>
			<stop  offset="1" style="stop-color:#48B6B7"/>
		</linearGradient>
		<path class="st1" d="M215.7,448.9h-91.9v-294l-89.6,36.5L3,116.2l157.2-61.5h55.5L215.7,448.9L215.7,448.9z"/>
	</g>
</g>
</svg>
