<?xml version="1.0" encoding="utf-8"?>
<!-- Generator: Adobe Illustrator 26.1.0, SVG Export Plug-In . SVG Version: 6.00 Build 0)  -->
<svg version="1.1" id="Layer_1" xmlns="http://www.w3.org/2000/svg" xmlns:xlink="http://www.w3.org/1999/xlink" x="0px" y="0px"
	 viewBox="0 0 32 32" style="enable-background:new 0 0 32 32;" xml:space="preserve">
<style type="text/css">
	.st0{fill:url(#SVGID_1_);}
	.st1{fill:url(#SVGID_00000139286860479214014270000009757988965397370773_);}
</style>
<g>
	
		<linearGradient id="SVGID_1_" gradientUnits="userSpaceOnUse" x1="23.6854" y1="26.8339" x2="23.6854" y2="9.6437" gradientTransform="matrix(1 0 0 -1 0 34)">
		<stop  offset="0" style="stop-color:#C9C9C9"/>
		<stop  offset="1" style="stop-color:#C9C9C9"/>
	</linearGradient>
	<path class="st0" d="M22.3,17c-4.6,0-6.9-2.2-6.9-6.5c0-4.3,2.3-6.4,6.9-6.4h6.9c1.3,0,1.8,0.5,1.8,1.6c0,1.1-0.6,1.6-1.8,1.6h-7.5
		c-2,0-3,1.1-3,3.3c0,2.2,1,3.3,3.1,3.3h5.4c3.2,0,4.9,1.4,4.9,4.3c0,7.1-3.6,10.7-10.8,10.7h-3.5c-1.1,0-1.8-0.5-1.8-1.5
		c0-1.1,0.6-1.7,1.8-1.7h4c4.8,0,7.3-2.4,7.3-7.2c0-1-0.5-1.5-1.6-1.5H22.3z"/>
</g>
<g>
	
		<linearGradient id="SVGID_00000108990290709068738810000009309408246790193034_" gradientUnits="userSpaceOnUse" x1="7.1561" y1="22.6287" x2="7.1561" y2="11.2545" gradientTransform="matrix(1 0 0 -1 0 34)">
		<stop  offset="0" style="stop-color:#3DCFC2"/>
		<stop  offset="1" style="stop-color:#25897D"/>
	</linearGradient>
	<path style="fill:url(#SVGID_00000108990290709068738810000009309408246790193034_);" d="M13.9,28.9H8.1V10.3l-5.7,2.3l-2-4.8
		L10.4,4h3.5L13.9,28.9L13.9,28.9z"/>
</g>
</svg>
