<?xml version="1.0" encoding="utf-8"?>
<!-- Generator: Adobe Illustrator 26.1.0, SVG Export Plug-In . SVG Version: 6.00 Build 0)  -->
<svg version="1.1" id="Layer_1" xmlns="http://www.w3.org/2000/svg" xmlns:xlink="http://www.w3.org/1999/xlink" x="0px" y="0px"
	 viewBox="0 0 680 160" style="enable-background:new 0 0 680 160;" xml:space="preserve">
<style type="text/css">
	.st0{fill:url(#SVGID_1_);}
	.st1{fill:url(#SVGID_00000168818701758329652110000015269764921278703778_);}
	.st2{fill:url(#SVGID_00000018198988904835166630000014367158179641430702_);}
	.st3{fill:url(#SVGID_00000013905548374612417640000010400445052064443071_);}
	.st4{fill:url(#SVGID_00000091006757167188095140000000132051710332814722_);}
	.st5{fill:url(#SVGID_00000062893997106510910500000009089348209295767170_);}
	.st6{fill:url(#SVGID_00000114056189848667961190000017060449747494245311_);}
	.st7{fill:url(#SVGID_00000149368628976427035380000004507865028309482903_);}
</style>
<g>
	<g>
		
			<linearGradient id="SVGID_1_" gradientUnits="userSpaceOnUse" x1="135.0881" y1="128.4969" x2="135.0881" y2="44.0814" gradientTransform="matrix(1 0 0 -1 0 162)">
			<stop  offset="0" style="stop-color:#C9C9C9"/>
			<stop  offset="1" style="stop-color:#C9C9C9"/>
		</linearGradient>
		<path class="st0" d="M128.3,82c-22.7,0-34-10.6-34-32c0-20.9,11.3-31.5,33.9-31.5h34c6.1,0,9,2.7,9,7.6c0,5.3-2.8,8-9,8h-37
			c-10,0-14.9,5.5-14.9,16.4c0,10.8,5,16.1,15.1,16.1H152c15.9,0,23.9,7,23.9,21.2c0,35-17.6,52.4-53.1,52.4h-17.3
			c-5.6,0-8.6-2.3-8.6-7.1c0-5.6,3-8.3,8.6-8.3H125c23.7,0,35.7-11.8,35.7-35.3c0-5-2.7-7.5-8-7.5H128.3z"/>
		
			<linearGradient id="SVGID_00000183240855793627929310000016249006243834232230_" gradientUnits="userSpaceOnUse" x1="217.6781" y1="128.4969" x2="217.6781" y2="44.0814" gradientTransform="matrix(1 0 0 -1 0 162)">
			<stop  offset="0" style="stop-color:#C9C9C9"/>
			<stop  offset="1" style="stop-color:#C9C9C9"/>
		</linearGradient>
		<path style="fill:url(#SVGID_00000183240855793627929310000016249006243834232230_);" d="M227.7,52.4c19.8,0,29.5,9.8,29.5,29.6
			v30c0,18.8-9.8,28.2-29.5,28.2h-20.2c-19.8,0-29.4-9.5-29.4-28.2V82c0-19.8,9.6-29.6,29.4-29.6H227.7z M229.5,124.8
			c8.1,0,12.3-3.7,12.3-11V80.1c0-8.3-4.1-12.3-12.3-12.3h-23.9c-8.1,0-12.1,4-12.1,12.3v33.7c0,7.3,4,11,12.1,11
			C205.6,124.8,229.5,124.8,229.5,124.8z"/>
		
			<linearGradient id="SVGID_00000080166361531619546340000013182941372014697868_" gradientUnits="userSpaceOnUse" x1="296.8531" y1="128.4969" x2="296.8531" y2="44.0814" gradientTransform="matrix(1 0 0 -1 0 162)">
			<stop  offset="0" style="stop-color:#C9C9C9"/>
			<stop  offset="1" style="stop-color:#C9C9C9"/>
		</linearGradient>
		<path style="fill:url(#SVGID_00000080166361531619546340000013182941372014697868_);" d="M334.9,140.2h-52.1
			c-16.1,0-24.1-8.1-24.1-24.4V60c0-5.2,2.5-7.6,7.6-7.6s7.8,2.5,7.8,7.6v55.8c0,6,3,9,8.6,9h36.7V60c0-5.2,2.5-7.6,7.6-7.6
			c5.3,0,7.8,2.5,7.8,7.6V140.2z"/>
		
			<linearGradient id="SVGID_00000139989186029025443350000017745070755199607174_" gradientUnits="userSpaceOnUse" x1="364.4131" y1="128.4969" x2="364.4131" y2="44.0814" gradientTransform="matrix(1 0 0 -1 0 162)">
			<stop  offset="0" style="stop-color:#C9C9C9"/>
			<stop  offset="1" style="stop-color:#C9C9C9"/>
		</linearGradient>
		<path style="fill:url(#SVGID_00000139989186029025443350000017745070755199607174_);" d="M380.9,52.4c5,0,7.6,2.3,7.6,7.1
			c0,5.5-2.7,8.3-7.8,8.3h-16.4c-5.6,0-8.6,3-8.6,8.8v55.8c0,5.2-2.7,7.8-7.8,7.8s-7.6-2.7-7.6-7.8V76.6c0-16.3,8.1-24.2,24.1-24.2
			L380.9,52.4L380.9,52.4z"/>
		
			<linearGradient id="SVGID_00000019667157738217692300000012348705952011870624_" gradientUnits="userSpaceOnUse" x1="422.7581" y1="128.4969" x2="422.7581" y2="44.0814" gradientTransform="matrix(1 0 0 -1 0 162)">
			<stop  offset="0" style="stop-color:#C9C9C9"/>
			<stop  offset="1" style="stop-color:#C9C9C9"/>
		</linearGradient>
		<path style="fill:url(#SVGID_00000019667157738217692300000012348705952011870624_);" d="M452.6,124.8c5,0,7.6,2.5,7.6,7.6
			s-2.7,7.8-7.8,7.8h-20.2c-31.4,0-47-14.8-47-44.5V80.3c0-18.6,9.8-27.9,29.2-27.9H452c5.5,0,8.3,2.5,8.3,7.6s-2.8,7.8-8.3,7.8h-37
			c-9.6,0-14.4,5.3-14.4,15.8v12.1c0,19.4,10.5,29,31.7,29L452.6,124.8L452.6,124.8z"/>
		
			<linearGradient id="SVGID_00000037686961975534930790000009745943023559343546_" gradientUnits="userSpaceOnUse" x1="501.5981" y1="128.4969" x2="501.5981" y2="44.0814" gradientTransform="matrix(1 0 0 -1 0 162)">
			<stop  offset="0" style="stop-color:#C9C9C9"/>
			<stop  offset="1" style="stop-color:#C9C9C9"/>
		</linearGradient>
		<path style="fill:url(#SVGID_00000037686961975534930790000009745943023559343546_);" d="M533,52.4c4.2,0,7.6,3.5,7.6,7.6v34.4
			c0,5.2-2.5,7.6-7.6,7.6H478v9.6c0,8.6,5.3,13.1,16.1,13.1H533c5.2,0,7.6,2.5,7.6,7.6s-2.5,7.8-7.6,7.8h-43.5
			c-17.9,0-26.9-9-26.9-27.2V60c0-4.2,3.5-7.6,7.6-7.6H533z M525.2,88.1V67.8H478v20.2H525.2z"/>
	</g>
</g>
<g>
	<g>
		
			<linearGradient id="SVGID_00000075144242014412947340000016175964888573486774_" gradientUnits="userSpaceOnUse" x1="53.9181" y1="17" x2="53.9181" y2="138.9269">
			<stop  offset="0" style="stop-color:#3DCFC2"/>
			<stop  offset="1" style="stop-color:#27756B"/>
		</linearGradient>
		<path style="fill:url(#SVGID_00000075144242014412947340000016175964888573486774_);" d="M87,140.4H58.4V49L30.5,60.3L20.9,37
			l48.9-19.1H87L87,140.4L87,140.4z"/>
	</g>
</g>
<linearGradient id="SVGID_00000042003045790785807690000004933535472643401884_" gradientUnits="userSpaceOnUse" x1="615.9412" y1="133.1628" x2="615.9412" y2="55.0538">
	<stop  offset="0" style="stop-color:#28796F"/>
	<stop  offset="1" style="stop-color:#3CCBBE"/>
</linearGradient>
<path style="fill:url(#SVGID_00000042003045790785807690000004933535472643401884_);" d="M644.1,53.3c-9.6,0-12.8,6-28.1,6
	c-15.1,0-18.7-6-28.1-6c-26.1,0-31.9,45.2-31.9,62.5c0,9.4,4.1,15.9,12.4,15.9c17.3,0,14.6-21.8,34.6-21.8H629
	c20,0,17.3,21.8,34.6,21.8c8.3,0,12.4-6.6,12.4-15.9C676,98.6,670.1,53.3,644.1,53.3z M590.9,96.9c-8.3,0-15-5.9-15-13.1
	s6.7-13.1,15-13.1c8.3,0,15,5.9,15,13.1S599.2,96.9,590.9,96.9z M641,70.8c2.8,0,5,1.9,5,4.4c0,2.4-2.2,4.4-5,4.4s-5-1.9-5-4.4
	S638.2,70.8,641,70.8z M631,88.2c-2.8,0-5-1.9-5-4.4c0-2.4,2.2-4.4,5-4.4s5,1.9,5,4.4C636,86.3,633.7,88.2,631,88.2z M641,96.9
	c-2.8,0-5-1.9-5-4.4c0-2.4,2.2-4.4,5-4.4s5,1.9,5,4.4S643.7,96.9,641,96.9z M651,88.2c-2.8,0-5-1.9-5-4.4c0-2.4,2.2-4.4,5-4.4
	c2.8,0,5,1.9,5,4.4C656,86.3,653.7,88.2,651,88.2z M599.7,83.8c0,4.2-3.9,7.6-8.8,7.6c-4.8,0-8.8-3.4-8.8-7.6s3.9-7.6,8.8-7.6
	C595.7,76.2,599.7,79.6,599.7,83.8z"/>
</svg>
