<?xml version="1.0" encoding="utf-8"?>
<!-- Generator: Adobe Illustrator 26.1.0, SVG Export Plug-In . SVG Version: 6.00 Build 0)  -->
<svg version="1.1" id="Layer_1" xmlns="http://www.w3.org/2000/svg" xmlns:xlink="http://www.w3.org/1999/xlink" x="0px" y="0px"
	 viewBox="0 0 581 124" style="enable-background:new 0 0 581 124;" xml:space="preserve">
<style type="text/css">
	.st0{fill:#FFFFFF;}
	.st1{fill:url(#SVGID_1_);}
</style>
<g>
	<g>
		<path class="st0" d="M133.7,64.8c-22.7,0-34-10.6-34-32c0-20.9,11.3-31.5,33.9-31.5h34c6.1,0,9,2.7,9,7.6c0,5.3-2.8,8-9,8h-37
			c-10,0-14.9,5.5-14.9,16.4c0,10.8,5,16.1,15.1,16.1h26.7c15.9,0,23.9,7,23.9,21.2c0,35-17.6,52.5-53.1,52.5h-17.3
			c-5.6,0-8.6-2.3-8.6-7.1c0-5.6,3-8.3,8.6-8.3h19.4c23.7,0,35.7-11.8,35.7-35.3c0-5-2.7-7.5-8-7.5H133.7z"/>
		<path class="st0" d="M233.1,35.2c19.8,0,29.6,9.8,29.6,29.5v30c0,18.8-9.8,28.2-29.6,28.2h-20.2c-19.8,0-29.4-9.5-29.4-28.2v-30
			c0-19.8,9.6-29.5,29.4-29.5H233.1z M234.9,107.6c8.1,0,12.3-3.7,12.3-11V63c0-8.3-4.1-12.3-12.3-12.3H211c-8.1,0-12.1,4-12.1,12.3
			v33.7c0,7.3,4,11,12.1,11C211,107.6,234.9,107.6,234.9,107.6z"/>
		<path class="st0" d="M340.3,123.1h-52.1c-16.1,0-24.1-8.1-24.1-24.4V42.9c0-5.2,2.5-7.6,7.6-7.6s7.8,2.5,7.8,7.6v55.8
			c0,6,3,9,8.6,9h36.7V42.9c0-5.2,2.5-7.6,7.6-7.6c5.3,0,7.8,2.5,7.8,7.6V123.1z"/>
		<path class="st0" d="M386.3,35.2c5,0,7.6,2.3,7.6,7.1c0,5.5-2.7,8.3-7.8,8.3h-16.4c-5.6,0-8.6,3-8.6,8.8v55.8
			c0,5.2-2.7,7.8-7.8,7.8s-7.6-2.7-7.6-7.8V59.5c0-16.3,8.1-24.2,24.1-24.2L386.3,35.2L386.3,35.2z"/>
		<path class="st0" d="M458,107.6c5,0,7.6,2.5,7.6,7.6s-2.7,7.8-7.8,7.8h-20.2c-31.4,0-47-14.8-47-44.5V63.1
			c0-18.6,9.8-27.9,29.2-27.9h37.5c5.5,0,8.3,2.5,8.3,7.6s-2.8,7.8-8.3,7.8h-37c-9.6,0-14.4,5.3-14.4,15.8v12.1
			c0,19.4,10.5,29,31.7,29L458,107.6L458,107.6z"/>
		<path class="st0" d="M538.4,35.2c4.2,0,7.6,3.5,7.6,7.6v34.4c0,5.2-2.5,7.6-7.6,7.6h-54.9v9.6c0,8.6,5.3,13.1,16.1,13.1h38.8
			c5.2,0,7.6,2.5,7.6,7.6s-2.5,7.8-7.6,7.8h-43.5c-17.9,0-26.9-9-26.9-27.2V42.9c0-4.2,3.5-7.6,7.6-7.6H538.4z M530.6,70.9V50.7
			h-47.1v20.2H530.6z"/>
	</g>
</g>
<g>
	<g>
		
			<linearGradient id="SVGID_1_" gradientUnits="userSpaceOnUse" x1="59.31" y1="89.0121" x2="59.31" y2="33.1568" gradientTransform="matrix(1 0 0 -1 0 126)">
			<stop  offset="0" style="stop-color:#8EC7C3"/>
			<stop  offset="1" style="stop-color:#48B6B7"/>
		</linearGradient>
		<path class="st1" d="M92.4,123.2H63.8V31.9L35.9,43.2l-9.7-23.4L75.1,0.7h17.2L92.4,123.2L92.4,123.2z"/>
	</g>
</g>
</svg>
