<?xml version="1.0" encoding="utf-8"?>
<!-- Generator: Adobe Illustrator 26.1.0, SVG Export Plug-In . SVG Version: 6.00 Build 0)  -->
<svg version="1.1" id="Layer_1" xmlns="http://www.w3.org/2000/svg" xmlns:xlink="http://www.w3.org/1999/xlink" x="0px" y="0px"
	 viewBox="0 0 680 160" style="enable-background:new 0 0 680 160;" xml:space="preserve">
<style type="text/css">
	.st0{fill:url(#SVGID_1_);}
	.st1{fill:url(#SVGID_00000039114012334086806400000010011586976609552014_);}
	.st2{fill:url(#SVGID_00000021803305593009505280000005720371414590391966_);}
	.st3{fill:url(#SVGID_00000150064542675877387920000000065926724324541087_);}
	.st4{fill:url(#SVGID_00000124858219105491687340000009211965517906865825_);}
	.st5{fill:url(#SVGID_00000120554539748379868690000012749545361400362630_);}
	.st6{fill:url(#SVGID_00000120537533729211481740000013770070447254086581_);}
	.st7{fill:url(#SVGID_00000020376841652202573440000003433042737007085980_);}
</style>
<g>
	<g>
		
			<linearGradient id="SVGID_1_" gradientUnits="userSpaceOnUse" x1="135.0881" y1="128.4969" x2="135.0881" y2="44.0814" gradientTransform="matrix(1 0 0 -1 0 162)">
			<stop  offset="0" style="stop-color:#C9C9C9"/>
			<stop  offset="1" style="stop-color:#C9C9C9"/>
		</linearGradient>
		<path class="st0" d="M128.3,82c-22.7,0-34-10.6-34-32c0-20.9,11.3-31.5,33.9-31.5h34c6.1,0,9,2.7,9,7.6c0,5.3-2.8,8-9,8h-37
			c-10,0-14.9,5.5-14.9,16.4c0,10.8,5,16.1,15.1,16.1H152c15.9,0,23.9,7,23.9,21.2c0,35-17.6,52.4-53.1,52.4h-17.3
			c-5.6,0-8.6-2.3-8.6-7.1c0-5.6,3-8.3,8.6-8.3H125c23.7,0,35.7-11.8,35.7-35.3c0-5-2.7-7.5-8-7.5H128.3z"/>
		
			<linearGradient id="SVGID_00000024686136867766522310000008440136373616411010_" gradientUnits="userSpaceOnUse" x1="217.6781" y1="128.4969" x2="217.6781" y2="44.0814" gradientTransform="matrix(1 0 0 -1 0 162)">
			<stop  offset="0" style="stop-color:#C9C9C9"/>
			<stop  offset="1" style="stop-color:#C9C9C9"/>
		</linearGradient>
		<path style="fill:url(#SVGID_00000024686136867766522310000008440136373616411010_);" d="M227.7,52.4c19.8,0,29.5,9.8,29.5,29.6
			v30c0,18.8-9.8,28.2-29.5,28.2h-20.2c-19.8,0-29.4-9.5-29.4-28.2V82c0-19.8,9.6-29.6,29.4-29.6H227.7z M229.5,124.8
			c8.1,0,12.3-3.7,12.3-11V80.1c0-8.3-4.1-12.3-12.3-12.3h-23.9c-8.1,0-12.1,4-12.1,12.3v33.7c0,7.3,4,11,12.1,11
			C205.6,124.8,229.5,124.8,229.5,124.8z"/>
		
			<linearGradient id="SVGID_00000011730462865688509990000016015054642285844902_" gradientUnits="userSpaceOnUse" x1="296.8531" y1="128.4969" x2="296.8531" y2="44.0814" gradientTransform="matrix(1 0 0 -1 0 162)">
			<stop  offset="0" style="stop-color:#C9C9C9"/>
			<stop  offset="1" style="stop-color:#C9C9C9"/>
		</linearGradient>
		<path style="fill:url(#SVGID_00000011730462865688509990000016015054642285844902_);" d="M334.9,140.2h-52.1
			c-16.1,0-24.1-8.1-24.1-24.4V60c0-5.2,2.5-7.6,7.6-7.6s7.8,2.5,7.8,7.6v55.8c0,6,3,9,8.6,9h36.7V60c0-5.2,2.5-7.6,7.6-7.6
			c5.3,0,7.8,2.5,7.8,7.6V140.2z"/>
		
			<linearGradient id="SVGID_00000178892096325015862280000018188616265840374708_" gradientUnits="userSpaceOnUse" x1="364.4131" y1="128.4969" x2="364.4131" y2="44.0814" gradientTransform="matrix(1 0 0 -1 0 162)">
			<stop  offset="0" style="stop-color:#C9C9C9"/>
			<stop  offset="1" style="stop-color:#C9C9C9"/>
		</linearGradient>
		<path style="fill:url(#SVGID_00000178892096325015862280000018188616265840374708_);" d="M380.9,52.4c5,0,7.6,2.3,7.6,7.1
			c0,5.5-2.7,8.3-7.8,8.3h-16.4c-5.6,0-8.6,3-8.6,8.8v55.8c0,5.2-2.7,7.8-7.8,7.8s-7.6-2.7-7.6-7.8V76.6c0-16.3,8.1-24.2,24.1-24.2
			L380.9,52.4L380.9,52.4z"/>
		
			<linearGradient id="SVGID_00000129180443902800525070000001272499917872213138_" gradientUnits="userSpaceOnUse" x1="422.7581" y1="128.4969" x2="422.7581" y2="44.0814" gradientTransform="matrix(1 0 0 -1 0 162)">
			<stop  offset="0" style="stop-color:#C9C9C9"/>
			<stop  offset="1" style="stop-color:#C9C9C9"/>
		</linearGradient>
		<path style="fill:url(#SVGID_00000129180443902800525070000001272499917872213138_);" d="M452.6,124.8c5,0,7.6,2.5,7.6,7.6
			s-2.7,7.8-7.8,7.8h-20.2c-31.4,0-47-14.8-47-44.5V80.3c0-18.6,9.8-27.9,29.2-27.9H452c5.5,0,8.3,2.5,8.3,7.6s-2.8,7.8-8.3,7.8h-37
			c-9.6,0-14.4,5.3-14.4,15.8v12.1c0,19.4,10.5,29,31.7,29L452.6,124.8L452.6,124.8z"/>
		
			<linearGradient id="SVGID_00000165946241797996547300000015405858678353404564_" gradientUnits="userSpaceOnUse" x1="501.5981" y1="128.4969" x2="501.5981" y2="44.0814" gradientTransform="matrix(1 0 0 -1 0 162)">
			<stop  offset="0" style="stop-color:#C9C9C9"/>
			<stop  offset="1" style="stop-color:#C9C9C9"/>
		</linearGradient>
		<path style="fill:url(#SVGID_00000165946241797996547300000015405858678353404564_);" d="M533,52.4c4.2,0,7.6,3.5,7.6,7.6v34.4
			c0,5.2-2.5,7.6-7.6,7.6H478v9.6c0,8.6,5.3,13.1,16.1,13.1H533c5.2,0,7.6,2.5,7.6,7.6s-2.5,7.8-7.6,7.8h-43.5
			c-17.9,0-26.9-9-26.9-27.2V60c0-4.2,3.5-7.6,7.6-7.6H533z M525.2,88.1V67.8H478v20.2H525.2z"/>
	</g>
</g>
<g>
	<g>
		
			<linearGradient id="SVGID_00000000194112477145068900000002413574248513635763_" gradientUnits="userSpaceOnUse" x1="53.9181" y1="17" x2="53.9181" y2="138.9269">
			<stop  offset="0" style="stop-color:#3DCFC2"/>
			<stop  offset="1" style="stop-color:#27756B"/>
		</linearGradient>
		<path style="fill:url(#SVGID_00000000194112477145068900000002413574248513635763_);" d="M87,140.4H58.4V49L30.5,60.3L20.9,37
			l48.9-19.1H87L87,140.4L87,140.4z"/>
	</g>
</g>
<g transform="translate(0.000000,1066.000000) scale(0.100000,-0.100000)">
	
		<linearGradient id="SVGID_00000033357711873428219650000005039211177734914746_" gradientUnits="userSpaceOnUse" x1="6164.0479" y1="9278.0498" x2="6164.436" y2="9380.9014">
		<stop  offset="0" style="stop-color:#28796F"/>
		<stop  offset="1" style="stop-color:#3CCBBE"/>
	</linearGradient>
	<path style="fill:url(#SVGID_00000033357711873428219650000005039211177734914746_);" d="M6337.6,10348.7c-2-0.8-5.3-2.5-7.2-4
		c-2-1.4-53-61.4-113.4-133.3l-109.7-130.8l-72.7,86.4c-77.5,92.2-74.4,88.9-82.4,88.9c-5.9,0-12.3-5.2-15.5-12.4
		c-2-4.6-2.1-12.7-0.3-17.8c0.9-2.6,21.6-27.9,68.7-84.1l67.4-80.3h-188.4c-121.7,0-190.9-0.4-195.3-1c-9.8-1.5-15.9-3.5-24-8.1
		c-8.6-4.9-13.2-8.6-20.1-16.3c-9.7-10.7-17-25.4-21.1-42.1l-2-8l-0.3-316.1c-0.2-347.8-0.5-325,4.9-341.8
		c4.1-12.6,8.3-20.3,17-30.7c8.8-10.5,16-16.3,26.7-21.3c14-6.5-25.9-6,495.7-6s481.6-0.5,495.7,6c10.4,4.9,18,10.8,26.4,20.8
		c8.3,9.9,13.4,19,17.4,31.4c5.4,16.4,5-5.5,5,337.9c-0.1,256.9-0.3,314-1.2,320.3c-5.3,35-26.4,62.1-55.7,71.8l-8.2,2.6l-251.8,0.3
		l-251.8,0.2l106.1,126.5c87.2,103.9,106.4,127.4,108.4,131.9c3.1,7.3,3.5,18.4,0.7,22.9
		C6352.2,10349.4,6345.3,10351.7,6337.6,10348.7z M6386.7,9969.8c21.9-4.3,41.3-18,55-39.3c8.1-12.5,14.6-31,16.5-46.9
		c0.7-5.8,0.9-68.7,0.7-222.9l-0.3-214.8l-2-8.6c-1.1-4.8-3.7-13.2-6-18.7c-11.2-28-30.6-47-56.3-55.4l-7.1-2.3h-309.7h-309.7
		l-7,2.2c-16.1,5.1-27.6,12.9-39,26.1c-16.1,18.7-23.9,38.8-25.9,65.9c-1.1,15.1-1.1,406.5,0,421.6c3.6,47.6,31.8,84.7,70.9,93.1
		C5776.1,9971.7,6376.3,9971.8,6386.7,9969.8z M6586.6,9796.4c17.4-5,32.7-23.2,36.7-44c1.4-7.2,1.4-19.5,0.1-26.4
		c-4.2-21.2-18.5-38.7-36.2-44.1c-6.5-1.9-18.2-1.9-24.6,0c-12.9,4.1-25.7,16.1-31.4,29.9c-11.7,27.9-4.4,60.2,17.4,77
		c4.8,3.6,12.7,7.4,17.8,8.4C6571.2,9798.2,6581.5,9797.8,6586.6,9796.4z M6585.1,9649.9c13.8-3.3,28-16.4,34-31.3
		c4-9.8,5.3-16.6,5.1-27.9c-0.1-16.2-5.3-29.9-15.7-41.6c-9.6-10.8-20.9-15.9-34.8-15.8c-31.6,0.4-54.6,36.7-46.7,73.6
		c3.4,15.9,11.8,28.8,24.5,37.4C6560.3,9650,6574.6,9652.4,6585.1,9649.9z"/>
</g>
</svg>
