<?xml version="1.0" encoding="utf-8"?>
<!-- Generator: Adobe Illustrator 26.1.0, SVG Export Plug-In . SVG Version: 6.00 Build 0)  -->
<svg version="1.1" id="Layer_1" xmlns="http://www.w3.org/2000/svg" xmlns:xlink="http://www.w3.org/1999/xlink" x="0px" y="0px"
	 viewBox="0 0 581 124" style="enable-background:new 0 0 581 124;" xml:space="preserve">
<style type="text/css">
	.st0{fill:url(#SVGID_1_);}
	.st1{fill:url(#SVGID_00000054954538387073110410000015888708005686744704_);}
	.st2{fill:url(#SVGID_00000012451381942573475870000004272219535386345355_);}
	.st3{fill:url(#SVGID_00000047026646204688633930000014069256187617636277_);}
	.st4{fill:url(#SVGID_00000132797877699406603660000017970656576729882280_);}
	.st5{fill:url(#SVGID_00000129905097536364838780000004346299809836254364_);}
	.st6{fill:url(#SVGID_00000010300170103791435190000010302639076771697285_);}
</style>
<g>
	<g>
		<linearGradient id="SVGID_1_" gradientUnits="userSpaceOnUse" x1="322.8289" y1="16.3376" x2="322.8289" y2="100.7531">
			<stop  offset="0" style="stop-color:#C9C9C9"/>
			<stop  offset="1" style="stop-color:#C9C9C9"/>
		</linearGradient>
		<path class="st0" d="M133.68,64.79c-22.74,0-34.03-10.62-34.03-32.04c0-20.91,11.29-31.54,33.86-31.54h34.03
			c6.14,0,8.96,2.66,8.96,7.64c0,5.31-2.82,7.97-8.96,7.97h-37.01c-9.96,0-14.94,5.48-14.94,16.43c0,10.79,4.98,16.1,15.1,16.1
			h26.72c15.93,0,23.9,6.97,23.9,21.25c0,35.02-17.59,52.45-53.12,52.45h-17.26c-5.64,0-8.63-2.32-8.63-7.14
			c0-5.64,2.99-8.3,8.63-8.3h19.42c23.74,0,35.69-11.79,35.69-35.35c0-4.98-2.66-7.47-7.97-7.47H133.68z"/>
		
			<linearGradient id="SVGID_00000181779014873216522140000013114637219611323325_" gradientUnits="userSpaceOnUse" x1="322.8289" y1="16.3376" x2="322.8289" y2="100.7531">
			<stop  offset="0" style="stop-color:#C9C9C9"/>
			<stop  offset="1" style="stop-color:#C9C9C9"/>
		</linearGradient>
		<path style="fill:url(#SVGID_00000181779014873216522140000013114637219611323325_);" d="M233.11,35.24
			c19.75,0,29.55,9.79,29.55,29.55v30.04c0,18.76-9.79,28.22-29.55,28.22h-20.25c-19.75,0-29.38-9.46-29.38-28.22V64.79
			c0-19.75,9.63-29.55,29.38-29.55H233.11z M234.94,107.61c8.13,0,12.28-3.65,12.28-10.96V62.96c0-8.3-4.15-12.28-12.28-12.28h-23.9
			c-8.13,0-12.12,3.98-12.12,12.28v33.69c0,7.3,3.98,10.96,12.12,10.96H234.94z"/>
		
			<linearGradient id="SVGID_00000033344844294054185930000006134196651157955761_" gradientUnits="userSpaceOnUse" x1="322.8289" y1="16.3376" x2="322.8289" y2="100.7531">
			<stop  offset="0" style="stop-color:#C9C9C9"/>
			<stop  offset="1" style="stop-color:#C9C9C9"/>
		</linearGradient>
		<path style="fill:url(#SVGID_00000033344844294054185930000006134196651157955761_);" d="M340.34,123.05h-52.12
			c-16.1,0-24.07-8.13-24.07-24.4V42.88c0-5.15,2.49-7.64,7.64-7.64s7.8,2.49,7.8,7.64v55.77c0,5.97,2.99,8.96,8.63,8.96h36.68
			V42.88c0-5.15,2.49-7.64,7.64-7.64c5.31,0,7.8,2.49,7.8,7.64V123.05z"/>
		
			<linearGradient id="SVGID_00000017492765902697250770000001612529520649803418_" gradientUnits="userSpaceOnUse" x1="322.8289" y1="16.3376" x2="322.8289" y2="100.7531">
			<stop  offset="0" style="stop-color:#C9C9C9"/>
			<stop  offset="1" style="stop-color:#C9C9C9"/>
		</linearGradient>
		<path style="fill:url(#SVGID_00000017492765902697250770000001612529520649803418_);" d="M386.32,35.24
			c4.98,0,7.63,2.32,7.63,7.14c0,5.48-2.66,8.3-7.8,8.3h-16.43c-5.64,0-8.63,2.99-8.63,8.8v55.77c0,5.15-2.66,7.8-7.8,7.8
			s-7.63-2.66-7.63-7.8V59.48c0-16.27,8.13-24.23,24.07-24.23H386.32z"/>
		
			<linearGradient id="SVGID_00000119837868553898349490000018297492186772182168_" gradientUnits="userSpaceOnUse" x1="322.8289" y1="16.3376" x2="322.8289" y2="100.7531">
			<stop  offset="0" style="stop-color:#C9C9C9"/>
			<stop  offset="1" style="stop-color:#C9C9C9"/>
		</linearGradient>
		<path style="fill:url(#SVGID_00000119837868553898349490000018297492186772182168_);" d="M458.03,107.61
			c4.98,0,7.63,2.49,7.63,7.63s-2.66,7.8-7.8,7.8h-20.25c-31.37,0-46.97-14.77-46.97-44.48V63.13c0-18.59,9.79-27.89,29.21-27.89
			h37.51c5.48,0,8.3,2.49,8.3,7.64s-2.82,7.8-8.3,7.8h-37.01c-9.63,0-14.44,5.31-14.44,15.77v12.12c0,19.42,10.46,29.05,31.7,29.05
			H458.03z"/>
		
			<linearGradient id="SVGID_00000159428068145956319670000004001807082841515956_" gradientUnits="userSpaceOnUse" x1="322.8289" y1="16.3376" x2="322.8289" y2="100.7531">
			<stop  offset="0" style="stop-color:#C9C9C9"/>
			<stop  offset="1" style="stop-color:#C9C9C9"/>
		</linearGradient>
		<path style="fill:url(#SVGID_00000159428068145956319670000004001807082841515956_);" d="M538.36,35.24
			c4.15,0,7.64,3.49,7.64,7.64v34.36c0,5.15-2.49,7.63-7.64,7.63h-54.94v9.63c0,8.63,5.31,13.11,16.1,13.11h38.84
			c5.15,0,7.64,2.49,7.64,7.63s-2.49,7.8-7.64,7.8h-43.49c-17.93,0-26.89-8.96-26.89-27.22V42.88c0-4.15,3.49-7.64,7.64-7.64H538.36
			z M530.56,70.93V50.68h-47.14v20.25H530.56z"/>
	</g>
</g>
<g>
	<g>
		
			<linearGradient id="SVGID_00000047751575745623366330000000638162316515062706_" gradientUnits="userSpaceOnUse" x1="59.3079" y1="36.9879" x2="59.3079" y2="92.8432">
			<stop  offset="0" style="stop-color:#9AD9EB"/>
			<stop  offset="1" style="stop-color:#729FD3"/>
		</linearGradient>
		<path style="fill:url(#SVGID_00000047751575745623366330000000638162316515062706_);" d="M92.36,123.21H63.79V31.85L35.94,43.18
			l-9.68-23.37L75.12,0.69h17.23V123.21z"/>
	</g>
</g>
</svg>
